<svg width="143" height="110" viewBox="0 0 143 110" fill="none" xmlns="http://www.w3.org/2000/svg">
<path fill-rule="evenodd" clip-rule="evenodd" d="M60.4419 18.6442C59.8947 21.203 57.5558 32.124 53.8208 28.1547C52.2445 26.4797 57.0286 19.6035 55.4061 13.9158C51.8398 1.41355 36.4046 8.78156 33.035 12.8654C31.306 14.9609 32.3361 17.2391 31.6529 20.4699C29.844 29.025 17.2827 44.0101 16.7305 36.6245C16.4992 33.5315 25.8642 28.2761 26.5494 21.2196C17.19 25.3128 -3.5856 40.3556 9.88616 47.3692C17.5197 51.3436 25.3903 44.3744 28.729 41.0381C31.2181 38.5508 32.7066 37.0139 34.7232 33.7926C36.7517 30.5524 37.0184 26.6478 40.8547 28.4454C42.5377 33.1978 34.5304 40.1584 33.3456 43.2283C36.7957 44.6555 40.289 44.4696 43.3999 42.4779C45.0069 41.4491 45.6209 40.4247 46.9128 39.3285C50.4484 36.3282 54.8125 39.4964 46.4639 45.547C43.3319 47.8173 41.0511 47.6866 37.9279 49.208C47.9405 70.5741 36.0679 77.4522 34.6704 80.4791C36.8458 84.5231 40.5634 88.3287 45.9203 90.1633C49.4052 91.357 50.6075 89.7547 52.5826 87.7508C63.0532 77.1275 54.7445 71.6817 53.2427 67.1413C50.8438 59.8869 56.5882 57.9727 60.3802 55.2218C58.4167 48.0622 59.1389 42.2884 63.0693 37.4859C67.609 31.9394 69.403 32.2695 76.6169 28.7616C75.6133 15.7 71.9037 14.2256 60.4419 18.6442Z" fill="#54A7AA"/>
<path fill-rule="evenodd" clip-rule="evenodd" d="M96.3708 40.8443C96.401 47.5721 99.1913 51.8701 93.8609 57.4453C92.1832 59.1996 81.0312 66.0531 80.8356 58.7155C85.2808 55.5257 94.729 58.1437 92.6111 45.1278C91.6277 39.0835 90.8637 40.5145 86.2174 38.3642C82.8528 36.8068 81.2082 34.7437 78.9972 32.7543C69.8818 34.4314 60.2597 42.8047 64.7652 53.8388C67.4145 53.9733 71.7392 52.6538 74.1017 53.4994C76.7753 54.4563 76.3861 57.3174 71.8793 57.8278C57.7687 59.4259 54.4589 61.5654 59.8642 69.5457C61.7491 72.3287 60.8963 73.0725 62.1591 75.4578C73.3185 74.303 65.6579 65.014 71.8134 64.4014C75.0405 67.0844 74.9623 78.1149 61.7889 80.1454C60.3638 86.5208 57.7383 87.8519 55.5726 91.585C65.9196 91.4732 69.887 87.5023 77.2439 84.7003C77.3822 80.3683 76.822 80.1027 79.1507 77.0034C88.4059 64.6855 114.414 70.7034 108.014 40.6298L96.3708 40.8443Z" fill="#17284A"/>
<path fill-rule="evenodd" clip-rule="evenodd" d="M134.161 33.5554C133.13 39.8326 132.631 43.9702 130.076 49.1836C129.346 50.6721 126.856 55.505 124.851 52.0433C123.317 49.3951 130.752 43.737 129.844 27.523C129.444 20.3727 121.182 14.4608 115.341 12.2475C108.596 9.69227 102.469 17.2169 106.054 27.5149C107.816 32.5781 111.199 36.4528 112.551 40.8924C114.603 47.6295 113.116 52.0273 112.179 58.1336C119.52 57.8185 123.11 56.8121 128.811 60.7463C134.226 64.4828 134.424 70.6767 136.127 72.9971C146.516 63.3497 142.79 37.1781 134.161 33.5554Z" fill="#F9AE49"/>
<path fill-rule="evenodd" clip-rule="evenodd" d="M85.126 15.9891C82.685 10.3822 90.8298 4.83528 93.4257 2.30101C89.9389 -0.187782 77.5188 -0.242222 72.5821 0.233814C66.6918 0.801971 59.2771 2.44183 55.6391 5.90914C56.4015 7.38184 57.2128 7.77249 58.3522 9.70444C59.2984 11.3089 59.4889 12.5008 60.3547 13.8539C94.8456 4.94839 62.9277 38.4419 104.893 36.4035C104.65 34.4126 102.919 31.8955 102.137 29.6607C97.6797 16.922 103.026 13.7692 106.422 9.0748C100.239 2.96685 99.2158 3.39431 94.9561 6.82561C86.2887 13.8069 90.5416 17.2671 85.126 15.9891Z" fill="#ED1C24"/>
<path fill-rule="evenodd" clip-rule="evenodd" d="M19.2704 62.8422C24.9216 64.1838 31.8072 65.8054 37.0216 63.3091C37.6282 56.5168 33.2509 48.4589 29.5883 46.291C20.9708 53.2186 11.5547 56.0266 3.22511 47.4055C-0.7196 51.6229 -0.86374 60.2748 1.80432 66.2433C4.0674 71.3059 8.80852 75.5757 14.8272 76.9945L19.1303 78.2709C23.7747 78.599 27.8652 79.3469 31.1148 77.109C34.4039 74.8434 35.7626 72.665 36.8221 68.1477C30.5382 69.4912 26.7168 68.8351 20.7447 67.7681C17.5729 65.5772 9.88189 65.5775 10.1137 60.2006C12.6575 58.0457 16.0351 60.8065 19.2704 62.8422Z" fill="#17284A"/>
<path fill-rule="evenodd" clip-rule="evenodd" d="M106.929 77.3334C106.958 77.1777 106.905 75.2391 106.874 75.0097C106.928 74.8042 106.924 73.7867 106.939 73.4462L107.242 70.2464C107.315 69.7452 107.465 69.0998 107.489 68.6785C107.616 68.7682 107.587 69.8924 107.622 70.2871C107.786 72.1261 107.996 74.0152 108.474 75.8304C108.65 76.499 108.796 77.1223 108.972 77.7776C111.943 88.8378 120.075 100.564 130.101 105.705C131.944 106.65 134.077 107.534 136.052 108.073C138.649 108.78 139.915 108.884 142.591 109.106C142.524 109.243 142.67 109.112 142.476 109.224C142.388 109.276 142.362 109.277 142.26 109.295C142.162 109.313 141.956 109.322 141.837 109.337L139.3 109.562C137.001 109.645 135.262 109.592 132.988 109.234C129.889 108.747 127.253 107.851 124.368 106.381C122.647 105.505 120.778 104.23 119.248 102.947C116.749 100.852 114.386 98.1334 112.595 95.2929C111.883 94.1629 111.346 93.0099 110.695 91.7978C108.941 88.5286 107.395 82.8629 107.089 79.0523C107.05 78.5641 107.03 77.7649 106.929 77.3334Z" fill="#3CBDAD"/>
<path fill-rule="evenodd" clip-rule="evenodd" d="M115.268 100.218C111.217 102.35 107.44 103.95 103.586 102.801C99.6871 101.638 97.7682 97.1679 96.4453 93.6691C96.0101 92.5181 94.8815 88.7178 94.6044 87.5357C93.4682 82.6875 89.9478 78.5337 84.7514 78.9685C83.6101 79.0642 82.8864 79.3638 81.6911 79.7406C81.7992 79.7268 82.6745 79.1702 82.9411 79.0413C85.9722 77.575 89.2643 76.7777 92.4179 78.3127C96.3427 80.2228 97.5435 83.7705 99.203 87.6527C102.018 94.2376 105.413 102.083 113.834 100.502C114.215 100.431 114.933 100.226 115.268 100.218Z" fill="#3CBDAD"/>
<path fill-rule="evenodd" clip-rule="evenodd" d="M125.468 62.9927C125.321 63.1573 124.283 63.6301 124.001 63.8051C123.502 64.1159 123.135 64.3872 122.703 64.7391C120.16 66.8108 120.099 69.8163 121.443 72.9211C122.064 74.3566 122.802 75.5735 123.591 76.8167C127.465 82.9191 128.837 88.0959 120.873 91.5208C120.471 91.6937 118.805 92.3665 118.293 92.4358C118.277 92.4378 118.253 92.4407 118.233 92.4397C118.269 92.2735 118.325 92.2744 118.582 92.081L119.743 91.0278C121.094 89.6922 121.862 87.6571 121.912 85.7573C121.999 82.5035 120.671 79.8712 119.313 76.6199C118.066 73.6373 117.223 70.6371 118.325 68.102C118.851 66.8926 119.775 65.8898 120.947 65.0666C122.015 64.3152 124.193 63.2646 125.468 62.9927Z" fill="#3CBDAD"/>
</svg>
